<svg width="1280" height="640" viewBox="0 0 1280 640" fill="none" xmlns="http://www.w3.org/2000/svg">
  <rect width="1280" height="640" fill="#F4F7F2"/>
  <path d="M0 80H1280M0 160H1280M0 240H1280M0 320H1280M0 400H1280M0 480H1280M0 560H1280M80 0V640M160 0V640M240 0V640M320 0V640M400 0V640M480 0V640M560 0V640M640 0V640M720 0V640M800 0V640M880 0V640M960 0V640M1040 0V640M1120 0V640M1200 0V640" stroke="#C7D4CE" stroke-opacity="0.55"/>
  <rect x="64" y="62" width="1152" height="516" rx="18" fill="white" fill-opacity="0.88" stroke="#C7D4CE" stroke-width="2"/>
  <rect x="64" y="62" width="74" height="516" rx="18" fill="#15272B"/>
  <rect x="86" y="92" width="30" height="30" rx="6" fill="#F05A4F"/>
  <rect x="86" y="148" width="30" height="30" rx="6" fill="white" fill-opacity="0.92"/>
  <rect x="86" y="202" width="30" height="30" rx="6" fill="white" fill-opacity="0.18"/>
  <rect x="86" y="256" width="30" height="30" rx="6" fill="white" fill-opacity="0.18"/>
  <text x="174" y="126" fill="#165D66" font-family="Segoe UI, Arial, sans-serif" font-size="24" font-weight="800" letter-spacing="4">OPENDESIGN VIBE STUDIO</text>
  <text x="174" y="176" fill="#15201F" font-family="Segoe UI, Arial, sans-serif" font-size="48" font-weight="850">Design preview first. Vibe code second.</text>
  <rect x="174" y="224" width="454" height="278" rx="12" fill="#F8FBF7" stroke="#C7D4CE" stroke-width="2"/>
  <text x="204" y="264" fill="#52706C" font-family="Segoe UI, Arial, sans-serif" font-size="16" font-weight="800" letter-spacing="2">INITIAL UI PROPOSAL</text>
  <rect x="204" y="292" width="166" height="42" rx="8" fill="#165D66"/>
  <rect x="386" y="292" width="166" height="42" rx="8" fill="#EAF0EC" stroke="#C7D4CE"/>
  <rect x="204" y="366" width="368" height="18" rx="9" fill="#C7D4CE"/>
  <rect x="204" y="402" width="316" height="18" rx="9" fill="#DCE6E0"/>
  <rect x="204" y="438" width="382" height="18" rx="9" fill="#DCE6E0"/>
  <rect x="668" y="224" width="452" height="278" rx="12" fill="#15272B"/>
  <text x="698" y="264" fill="#B9CCC5" font-family="Segoe UI, Arial, sans-serif" font-size="16" font-weight="800" letter-spacing="2">CUSTOM ENDPOINTS</text>
  <rect x="698" y="298" width="362" height="38" rx="8" fill="#FBFDF9"/>
  <rect x="698" y="356" width="166" height="86" rx="10" fill="#1F3A3D"/>
  <rect x="886" y="356" width="166" height="86" rx="10" fill="#1F3A3D"/>
  <rect x="698" y="462" width="138" height="40" rx="8" fill="#F05A4F"/>
  <text x="174" y="548" fill="#425450" font-family="Segoe UI, Arial, sans-serif" font-size="22" font-weight="600">Local Windows GUI for OpenDesign-style proposals and OpenAI-compatible app generation.</text>
</svg>
